G04 #@! TF.GenerationSoftware,KiCad,Pcbnew,(5.0.0-rc2-dev-493-gd776eaca8)*
G04 #@! TF.CreationDate,2018-06-12T16:33:06-03:00*
G04 #@! TF.ProjectId,HDDriver,48444472697665722E6B696361645F70,rev?*
G04 #@! TF.SameCoordinates,PX6052340PY57bcf00*
G04 #@! TF.FileFunction,Legend,Top*
G04 #@! TF.FilePolarity,Positive*
%FSLAX46Y46*%
G04 Gerber Fmt 4.6, Leading zero omitted, Abs format (unit mm)*
G04 Created by KiCad (PCBNEW (5.0.0-rc2-dev-493-gd776eaca8)) date Tue Jun 12 16:33:06 2018*
%MOMM*%
%LPD*%
G01*
G04 APERTURE LIST*
%ADD10C,0.150000*%
%ADD11C,0.120000*%
%ADD12C,0.254000*%
%ADD13C,0.203200*%
%ADD14C,0.100000*%
G04 APERTURE END LIST*
D10*
X11001000Y17825000D02*
X18999000Y17825000D01*
X11006000Y17965000D02*
X18994000Y17965000D01*
X11016000Y18105000D02*
X18984000Y18105000D01*
X11031000Y18245000D02*
X18969000Y18245000D01*
X11051000Y18385000D02*
X18949000Y18385000D01*
X11076000Y18525000D02*
X14778000Y18525000D01*
X15222000Y18525000D02*
X18924000Y18525000D01*
X11106000Y18665000D02*
X14450000Y18665000D01*
X15550000Y18665000D02*
X18894000Y18665000D01*
X11142000Y18805000D02*
X14281000Y18805000D01*
X15719000Y18805000D02*
X18858000Y18805000D01*
X11183000Y18945000D02*
X14168000Y18945000D01*
X15832000Y18945000D02*
X18817000Y18945000D01*
X11229000Y19085000D02*
X14090000Y19085000D01*
X15910000Y19085000D02*
X18771000Y19085000D01*
X11282000Y19225000D02*
X14039000Y19225000D01*
X15961000Y19225000D02*
X18718000Y19225000D01*
X11341000Y19365000D02*
X14009000Y19365000D01*
X15991000Y19365000D02*
X18659000Y19365000D01*
X11406000Y19505000D02*
X14000000Y19505000D01*
X16000000Y19505000D02*
X18594000Y19505000D01*
X11477000Y19645000D02*
X14011000Y19645000D01*
X15989000Y19645000D02*
X18523000Y19645000D01*
X11556000Y19785000D02*
X14041000Y19785000D01*
X15959000Y19785000D02*
X18444000Y19785000D01*
X11643000Y19925000D02*
X14095000Y19925000D01*
X15905000Y19925000D02*
X18357000Y19925000D01*
X11738000Y20065000D02*
X14175000Y20065000D01*
X15825000Y20065000D02*
X18262000Y20065000D01*
X11842000Y20205000D02*
X14291000Y20205000D01*
X15709000Y20205000D02*
X18158000Y20205000D01*
X11956000Y20345000D02*
X14465000Y20345000D01*
X15535000Y20345000D02*
X18044000Y20345000D01*
X12081000Y20485000D02*
X14827000Y20485000D01*
X15173000Y20485000D02*
X17919000Y20485000D01*
X12219000Y20625000D02*
X17781000Y20625000D01*
X12371000Y20765000D02*
X17629000Y20765000D01*
X12541000Y20905000D02*
X17459000Y20905000D01*
X12732000Y21045000D02*
X17268000Y21045000D01*
X12950000Y21185000D02*
X17050000Y21185000D01*
X13206000Y21325000D02*
X16794000Y21325000D01*
X13517000Y21465000D02*
X16483000Y21465000D01*
X13933000Y21605000D02*
X16067000Y21605000D01*
X14800000Y21745000D02*
X15200000Y21745000D01*
X16000000Y19500000D02*
G75*
G03X16000000Y19500000I-1000000J0D01*
G01*
X19037500Y17750000D02*
G75*
G03X19037500Y17750000I-4037500J0D01*
G01*
X21325000Y7499000D02*
X21325000Y2501000D01*
X21465000Y7491000D02*
X21465000Y2509000D01*
X21605000Y7475000D02*
X21605000Y5095000D01*
X21605000Y4905000D02*
X21605000Y2525000D01*
X21745000Y7451000D02*
X21745000Y5490000D01*
X21745000Y4510000D02*
X21745000Y2549000D01*
X21885000Y7418000D02*
X21885000Y5657000D01*
X21885000Y4343000D02*
X21885000Y2582000D01*
X22025000Y7377000D02*
X22025000Y5764000D01*
X22025000Y4236000D02*
X22025000Y2623000D01*
X22165000Y7327000D02*
X22165000Y5835000D01*
X22165000Y4165000D02*
X22165000Y2673000D01*
X22305000Y7266000D02*
X22305000Y5879000D01*
X22305000Y4121000D02*
X22305000Y2734000D01*
X22445000Y7196000D02*
X22445000Y5898000D01*
X22445000Y4102000D02*
X22445000Y2804000D01*
X22585000Y7114000D02*
X22585000Y5896000D01*
X22585000Y4104000D02*
X22585000Y2886000D01*
X22725000Y7019000D02*
X22725000Y5871000D01*
X22725000Y4129000D02*
X22725000Y2981000D01*
X22865000Y6908000D02*
X22865000Y5823000D01*
X22865000Y4177000D02*
X22865000Y3092000D01*
X23005000Y6780000D02*
X23005000Y5745000D01*
X23005000Y4255000D02*
X23005000Y3220000D01*
X23145000Y6631000D02*
X23145000Y5628000D01*
X23145000Y4372000D02*
X23145000Y3369000D01*
X23285000Y6452000D02*
X23285000Y5440000D01*
X23285000Y4560000D02*
X23285000Y3548000D01*
X23425000Y6233000D02*
X23425000Y3767000D01*
X23565000Y5944000D02*
X23565000Y4056000D01*
X23705000Y5472000D02*
X23705000Y4528000D01*
X23400000Y5000000D02*
G75*
G03X23400000Y5000000I-900000J0D01*
G01*
X23787500Y5000000D02*
G75*
G03X23787500Y5000000I-2537500J0D01*
G01*
D11*
X5500000Y5900000D02*
X-3300000Y5900000D01*
X-3300000Y5900000D02*
X-3300000Y15100000D01*
X11400000Y8600000D02*
X11400000Y5900000D01*
X11400000Y5900000D02*
X9500000Y5900000D01*
X-3300000Y15100000D02*
X11400000Y15100000D01*
X11400000Y15100000D02*
X11400000Y12500000D01*
X22650000Y22780000D02*
X22650000Y22910000D01*
X22650000Y22910000D02*
X27970000Y22910000D01*
X27970000Y22910000D02*
X27970000Y22780000D01*
X22650000Y20220000D02*
X22650000Y20090000D01*
X22650000Y20090000D02*
X27970000Y20090000D01*
X27970000Y20090000D02*
X27970000Y20220000D01*
X23490000Y22910000D02*
X23490000Y20090000D01*
X23490000Y19910000D02*
X23490000Y17090000D01*
X27970000Y17090000D02*
X27970000Y17220000D01*
X22650000Y17090000D02*
X27970000Y17090000D01*
X22650000Y17220000D02*
X22650000Y17090000D01*
X27970000Y19910000D02*
X27970000Y19780000D01*
X22650000Y19910000D02*
X27970000Y19910000D01*
X22650000Y19780000D02*
X22650000Y19910000D01*
X22650000Y16280000D02*
X22650000Y16410000D01*
X22650000Y16410000D02*
X27970000Y16410000D01*
X27970000Y16410000D02*
X27970000Y16280000D01*
X22650000Y13720000D02*
X22650000Y13590000D01*
X22650000Y13590000D02*
X27970000Y13590000D01*
X27970000Y13590000D02*
X27970000Y13720000D01*
X23490000Y16410000D02*
X23490000Y13590000D01*
X68890000Y29890000D02*
X68890000Y28500000D01*
X67500000Y29890000D02*
X68890000Y29890000D01*
X66230000Y27110000D02*
X66230000Y29890000D01*
X55950000Y27110000D02*
X66230000Y27110000D01*
X55950000Y29890000D02*
X55950000Y27110000D01*
X66230000Y29890000D02*
X55950000Y29890000D01*
X32110000Y20230000D02*
X32110000Y12490000D01*
X32110000Y12490000D02*
X34890000Y12490000D01*
X34890000Y12490000D02*
X34890000Y20230000D01*
X34890000Y20230000D02*
X32110000Y20230000D01*
X32110000Y21500000D02*
X32110000Y22890000D01*
X32110000Y22890000D02*
X33500000Y22890000D01*
D12*
X49659000Y26500000D02*
X51310000Y26500000D01*
X45341000Y26500000D02*
X43690000Y26500000D01*
X45341000Y27389000D02*
X45341000Y25611000D01*
X45341000Y25611000D02*
X49659000Y25611000D01*
X49659000Y25611000D02*
X49659000Y27389000D01*
X49659000Y27389000D02*
X45341000Y27389000D01*
X53159000Y15389000D02*
X48841000Y15389000D01*
X53159000Y13611000D02*
X53159000Y15389000D01*
X48841000Y13611000D02*
X53159000Y13611000D01*
X48841000Y15389000D02*
X48841000Y13611000D01*
X48841000Y14500000D02*
X47190000Y14500000D01*
X53159000Y14500000D02*
X54810000Y14500000D01*
X52659000Y6000000D02*
X54310000Y6000000D01*
X48341000Y6000000D02*
X46690000Y6000000D01*
X48341000Y6889000D02*
X48341000Y5111000D01*
X48341000Y5111000D02*
X52659000Y5111000D01*
X52659000Y5111000D02*
X52659000Y6889000D01*
X52659000Y6889000D02*
X48341000Y6889000D01*
D10*
X67365000Y9205000D02*
X67365000Y10475000D01*
X60015000Y9205000D02*
X60015000Y10475000D01*
X60015000Y21415000D02*
X60015000Y20145000D01*
X67365000Y21415000D02*
X67365000Y20145000D01*
X67365000Y9205000D02*
X60015000Y9205000D01*
X67365000Y21415000D02*
X60015000Y21415000D01*
X67365000Y10475000D02*
X68650000Y10475000D01*
D11*
X13420000Y13120000D02*
X23660000Y13120000D01*
X13420000Y8479000D02*
X23660000Y8479000D01*
X13420000Y13120000D02*
X13420000Y8479000D01*
X23660000Y13120000D02*
X23660000Y8479000D01*
X13420000Y11610000D02*
X23660000Y11610000D01*
X16690000Y13120000D02*
X16690000Y11610000D01*
X20391000Y13120000D02*
X20391000Y11610000D01*
X38580000Y26880000D02*
X28340000Y26880000D01*
X38580000Y31521000D02*
X28340000Y31521000D01*
X38580000Y26880000D02*
X38580000Y31521000D01*
X28340000Y26880000D02*
X28340000Y31521000D01*
X38580000Y28390000D02*
X28340000Y28390000D01*
X35310000Y26880000D02*
X35310000Y28390000D01*
X31609000Y26880000D02*
X31609000Y28390000D01*
X39880000Y20891000D02*
X41390000Y20891000D01*
X39880000Y17190000D02*
X41390000Y17190000D01*
X41390000Y13920000D02*
X41390000Y24160000D01*
X39880000Y24160000D02*
X44521000Y24160000D01*
X39880000Y13920000D02*
X44521000Y13920000D01*
X44521000Y13920000D02*
X44521000Y24160000D01*
X39880000Y13920000D02*
X39880000Y24160000D01*
X39880000Y3420000D02*
X39880000Y13660000D01*
X44521000Y3420000D02*
X44521000Y13660000D01*
X39880000Y3420000D02*
X44521000Y3420000D01*
X39880000Y13660000D02*
X44521000Y13660000D01*
X41390000Y3420000D02*
X41390000Y13660000D01*
X39880000Y6690000D02*
X41390000Y6690000D01*
X39880000Y10391000D02*
X41390000Y10391000D01*
D10*
X10057142Y17583334D02*
X10104761Y17535715D01*
X10152380Y17392858D01*
X10152380Y17297620D01*
X10104761Y17154762D01*
X10009523Y17059524D01*
X9914285Y17011905D01*
X9723809Y16964286D01*
X9580952Y16964286D01*
X9390476Y17011905D01*
X9295238Y17059524D01*
X9200000Y17154762D01*
X9152380Y17297620D01*
X9152380Y17392858D01*
X9200000Y17535715D01*
X9247619Y17583334D01*
X10152380Y18535715D02*
X10152380Y17964286D01*
X10152380Y18250000D02*
X9152380Y18250000D01*
X9295238Y18154762D01*
X9390476Y18059524D01*
X9438095Y17964286D01*
X21083333Y8442858D02*
X21035714Y8395239D01*
X20892857Y8347620D01*
X20797619Y8347620D01*
X20654761Y8395239D01*
X20559523Y8490477D01*
X20511904Y8585715D01*
X20464285Y8776191D01*
X20464285Y8919048D01*
X20511904Y9109524D01*
X20559523Y9204762D01*
X20654761Y9300000D01*
X20797619Y9347620D01*
X20892857Y9347620D01*
X21035714Y9300000D01*
X21083333Y9252381D01*
X21464285Y9252381D02*
X21511904Y9300000D01*
X21607142Y9347620D01*
X21845238Y9347620D01*
X21940476Y9300000D01*
X21988095Y9252381D01*
X22035714Y9157143D01*
X22035714Y9061905D01*
X21988095Y8919048D01*
X21416666Y8347620D01*
X22035714Y8347620D01*
X835714Y4392858D02*
X788095Y4345239D01*
X645238Y4297620D01*
X550000Y4297620D01*
X407142Y4345239D01*
X311904Y4440477D01*
X264285Y4535715D01*
X216666Y4726191D01*
X216666Y4869048D01*
X264285Y5059524D01*
X311904Y5154762D01*
X407142Y5250000D01*
X550000Y5297620D01*
X645238Y5297620D01*
X788095Y5250000D01*
X835714Y5202381D01*
X1454761Y5297620D02*
X1645238Y5297620D01*
X1740476Y5250000D01*
X1835714Y5154762D01*
X1883333Y4964286D01*
X1883333Y4630953D01*
X1835714Y4440477D01*
X1740476Y4345239D01*
X1645238Y4297620D01*
X1454761Y4297620D01*
X1359523Y4345239D01*
X1264285Y4440477D01*
X1216666Y4630953D01*
X1216666Y4964286D01*
X1264285Y5154762D01*
X1359523Y5250000D01*
X1454761Y5297620D01*
X2311904Y4297620D02*
X2311904Y5297620D01*
X2883333Y4297620D01*
X2883333Y5297620D01*
X3883333Y4297620D02*
X3311904Y4297620D01*
X3597619Y4297620D02*
X3597619Y5297620D01*
X3502380Y5154762D01*
X3407142Y5059524D01*
X3311904Y5011905D01*
X24571904Y23457620D02*
X24571904Y24457620D01*
X24810000Y24457620D01*
X24952857Y24410000D01*
X25048095Y24314762D01*
X25095714Y24219524D01*
X25143333Y24029048D01*
X25143333Y23886191D01*
X25095714Y23695715D01*
X25048095Y23600477D01*
X24952857Y23505239D01*
X24810000Y23457620D01*
X24571904Y23457620D01*
X26095714Y23457620D02*
X25524285Y23457620D01*
X25810000Y23457620D02*
X25810000Y24457620D01*
X25714761Y24314762D01*
X25619523Y24219524D01*
X25524285Y24171905D01*
X24571904Y20457620D02*
X24571904Y21457620D01*
X24810000Y21457620D01*
X24952857Y21410000D01*
X25048095Y21314762D01*
X25095714Y21219524D01*
X25143333Y21029048D01*
X25143333Y20886191D01*
X25095714Y20695715D01*
X25048095Y20600477D01*
X24952857Y20505239D01*
X24810000Y20457620D01*
X24571904Y20457620D01*
X25524285Y21362381D02*
X25571904Y21410000D01*
X25667142Y21457620D01*
X25905238Y21457620D01*
X26000476Y21410000D01*
X26048095Y21362381D01*
X26095714Y21267143D01*
X26095714Y21171905D01*
X26048095Y21029048D01*
X25476666Y20457620D01*
X26095714Y20457620D01*
X24571904Y16957620D02*
X24571904Y17957620D01*
X24810000Y17957620D01*
X24952857Y17910000D01*
X25048095Y17814762D01*
X25095714Y17719524D01*
X25143333Y17529048D01*
X25143333Y17386191D01*
X25095714Y17195715D01*
X25048095Y17100477D01*
X24952857Y17005239D01*
X24810000Y16957620D01*
X24571904Y16957620D01*
X25476666Y17957620D02*
X26095714Y17957620D01*
X25762380Y17576667D01*
X25905238Y17576667D01*
X26000476Y17529048D01*
X26048095Y17481429D01*
X26095714Y17386191D01*
X26095714Y17148096D01*
X26048095Y17052858D01*
X26000476Y17005239D01*
X25905238Y16957620D01*
X25619523Y16957620D01*
X25524285Y17005239D01*
X25476666Y17052858D01*
X70342380Y27761905D02*
X69342380Y27761905D01*
X69342380Y28142858D01*
X69390000Y28238096D01*
X69437619Y28285715D01*
X69532857Y28333334D01*
X69675714Y28333334D01*
X69770952Y28285715D01*
X69818571Y28238096D01*
X69866190Y28142858D01*
X69866190Y27761905D01*
X70342380Y29285715D02*
X70342380Y28714286D01*
X70342380Y29000000D02*
X69342380Y29000000D01*
X69485238Y28904762D01*
X69580476Y28809524D01*
X69628095Y28714286D01*
X32761904Y23437620D02*
X32761904Y24437620D01*
X33142857Y24437620D01*
X33238095Y24390000D01*
X33285714Y24342381D01*
X33333333Y24247143D01*
X33333333Y24104286D01*
X33285714Y24009048D01*
X33238095Y23961429D01*
X33142857Y23913810D01*
X32761904Y23913810D01*
X33714285Y24342381D02*
X33761904Y24390000D01*
X33857142Y24437620D01*
X34095238Y24437620D01*
X34190476Y24390000D01*
X34238095Y24342381D01*
X34285714Y24247143D01*
X34285714Y24151905D01*
X34238095Y24009048D01*
X33666666Y23437620D01*
X34285714Y23437620D01*
D13*
X47288333Y25868024D02*
X46865000Y26533262D01*
X46562619Y25868024D02*
X46562619Y27265024D01*
X47046428Y27265024D01*
X47167380Y27198500D01*
X47227857Y27131977D01*
X47288333Y26998929D01*
X47288333Y26799358D01*
X47227857Y26666310D01*
X47167380Y26599786D01*
X47046428Y26533262D01*
X46562619Y26533262D01*
X48497857Y25868024D02*
X47772142Y25868024D01*
X48135000Y25868024D02*
X48135000Y27265024D01*
X48014047Y27065453D01*
X47893095Y26932405D01*
X47772142Y26865881D01*
D14*
X46490476Y25361905D02*
X46528571Y25400000D01*
X46604761Y25438096D01*
X46795238Y25438096D01*
X46871428Y25400000D01*
X46909523Y25361905D01*
X46947619Y25285715D01*
X46947619Y25209524D01*
X46909523Y25095239D01*
X46452380Y24638096D01*
X46947619Y24638096D01*
X47290476Y24638096D02*
X47290476Y25438096D01*
X47747619Y24638096D02*
X47404761Y25095239D01*
X47747619Y25438096D02*
X47290476Y24980953D01*
X48014285Y25438096D02*
X48547619Y25438096D01*
X48204761Y24638096D01*
D13*
X50788333Y13868024D02*
X50365000Y14533262D01*
X50062619Y13868024D02*
X50062619Y15265024D01*
X50546428Y15265024D01*
X50667380Y15198500D01*
X50727857Y15131977D01*
X50788333Y14998929D01*
X50788333Y14799358D01*
X50727857Y14666310D01*
X50667380Y14599786D01*
X50546428Y14533262D01*
X50062619Y14533262D01*
X51272142Y15131977D02*
X51332619Y15198500D01*
X51453571Y15265024D01*
X51755952Y15265024D01*
X51876904Y15198500D01*
X51937380Y15131977D01*
X51997857Y14998929D01*
X51997857Y14865881D01*
X51937380Y14666310D01*
X51211666Y13868024D01*
X51997857Y13868024D01*
D14*
X49990476Y13361905D02*
X50028571Y13400000D01*
X50104761Y13438096D01*
X50295238Y13438096D01*
X50371428Y13400000D01*
X50409523Y13361905D01*
X50447619Y13285715D01*
X50447619Y13209524D01*
X50409523Y13095239D01*
X49952380Y12638096D01*
X50447619Y12638096D01*
X50790476Y12638096D02*
X50790476Y13438096D01*
X51247619Y12638096D02*
X50904761Y13095239D01*
X51247619Y13438096D02*
X50790476Y12980953D01*
X51514285Y13438096D02*
X52047619Y13438096D01*
X51704761Y12638096D01*
D13*
X50288333Y5368024D02*
X49865000Y6033262D01*
X49562619Y5368024D02*
X49562619Y6765024D01*
X50046428Y6765024D01*
X50167380Y6698500D01*
X50227857Y6631977D01*
X50288333Y6498929D01*
X50288333Y6299358D01*
X50227857Y6166310D01*
X50167380Y6099786D01*
X50046428Y6033262D01*
X49562619Y6033262D01*
X50711666Y6765024D02*
X51497857Y6765024D01*
X51074523Y6232834D01*
X51255952Y6232834D01*
X51376904Y6166310D01*
X51437380Y6099786D01*
X51497857Y5966739D01*
X51497857Y5634120D01*
X51437380Y5501072D01*
X51376904Y5434548D01*
X51255952Y5368024D01*
X50893095Y5368024D01*
X50772142Y5434548D01*
X50711666Y5501072D01*
D14*
X49490476Y4861905D02*
X49528571Y4900000D01*
X49604761Y4938096D01*
X49795238Y4938096D01*
X49871428Y4900000D01*
X49909523Y4861905D01*
X49947619Y4785715D01*
X49947619Y4709524D01*
X49909523Y4595239D01*
X49452380Y4138096D01*
X49947619Y4138096D01*
X50290476Y4138096D02*
X50290476Y4938096D01*
X50747619Y4138096D02*
X50404761Y4595239D01*
X50747619Y4938096D02*
X50290476Y4480953D01*
X51014285Y4938096D02*
X51547619Y4938096D01*
X51204761Y4138096D01*
D10*
X66738095Y6827620D02*
X66738095Y6018096D01*
X66785714Y5922858D01*
X66833333Y5875239D01*
X66928571Y5827620D01*
X67119047Y5827620D01*
X67214285Y5875239D01*
X67261904Y5922858D01*
X67309523Y6018096D01*
X67309523Y6827620D01*
X68309523Y5827620D02*
X67738095Y5827620D01*
X68023809Y5827620D02*
X68023809Y6827620D01*
X67928571Y6684762D01*
X67833333Y6589524D01*
X67738095Y6541905D01*
X17778095Y14667620D02*
X17778095Y13858096D01*
X17825714Y13762858D01*
X17873333Y13715239D01*
X17968571Y13667620D01*
X18159047Y13667620D01*
X18254285Y13715239D01*
X18301904Y13762858D01*
X18349523Y13858096D01*
X18349523Y14667620D01*
X18778095Y14572381D02*
X18825714Y14620000D01*
X18920952Y14667620D01*
X19159047Y14667620D01*
X19254285Y14620000D01*
X19301904Y14572381D01*
X19349523Y14477143D01*
X19349523Y14381905D01*
X19301904Y14239048D01*
X18730476Y13667620D01*
X19349523Y13667620D01*
X16944761Y6127620D02*
X16468571Y6127620D01*
X16468571Y7127620D01*
X17182857Y7127620D02*
X17849523Y7127620D01*
X17420952Y6127620D01*
X18373333Y6699048D02*
X18278095Y6746667D01*
X18230476Y6794286D01*
X18182857Y6889524D01*
X18182857Y6937143D01*
X18230476Y7032381D01*
X18278095Y7080000D01*
X18373333Y7127620D01*
X18563809Y7127620D01*
X18659047Y7080000D01*
X18706666Y7032381D01*
X18754285Y6937143D01*
X18754285Y6889524D01*
X18706666Y6794286D01*
X18659047Y6746667D01*
X18563809Y6699048D01*
X18373333Y6699048D01*
X18278095Y6651429D01*
X18230476Y6603810D01*
X18182857Y6508572D01*
X18182857Y6318096D01*
X18230476Y6222858D01*
X18278095Y6175239D01*
X18373333Y6127620D01*
X18563809Y6127620D01*
X18659047Y6175239D01*
X18706666Y6222858D01*
X18754285Y6318096D01*
X18754285Y6508572D01*
X18706666Y6603810D01*
X18659047Y6651429D01*
X18563809Y6699048D01*
X19373333Y7127620D02*
X19468571Y7127620D01*
X19563809Y7080000D01*
X19611428Y7032381D01*
X19659047Y6937143D01*
X19706666Y6746667D01*
X19706666Y6508572D01*
X19659047Y6318096D01*
X19611428Y6222858D01*
X19563809Y6175239D01*
X19468571Y6127620D01*
X19373333Y6127620D01*
X19278095Y6175239D01*
X19230476Y6222858D01*
X19182857Y6318096D01*
X19135238Y6508572D01*
X19135238Y6746667D01*
X19182857Y6937143D01*
X19230476Y7032381D01*
X19278095Y7080000D01*
X19373333Y7127620D01*
X20611428Y7127620D02*
X20135238Y7127620D01*
X20087619Y6651429D01*
X20135238Y6699048D01*
X20230476Y6746667D01*
X20468571Y6746667D01*
X20563809Y6699048D01*
X20611428Y6651429D01*
X20659047Y6556191D01*
X20659047Y6318096D01*
X20611428Y6222858D01*
X20563809Y6175239D01*
X20468571Y6127620D01*
X20230476Y6127620D01*
X20135238Y6175239D01*
X20087619Y6222858D01*
X33364761Y25332381D02*
X33269523Y25380000D01*
X33174285Y25475239D01*
X33031428Y25618096D01*
X32936190Y25665715D01*
X32840952Y25665715D01*
X32888571Y25427620D02*
X32793333Y25475239D01*
X32698095Y25570477D01*
X32650476Y25760953D01*
X32650476Y26094286D01*
X32698095Y26284762D01*
X32793333Y26380000D01*
X32888571Y26427620D01*
X33079047Y26427620D01*
X33174285Y26380000D01*
X33269523Y26284762D01*
X33317142Y26094286D01*
X33317142Y25760953D01*
X33269523Y25570477D01*
X33174285Y25475239D01*
X33079047Y25427620D01*
X32888571Y25427620D01*
X34269523Y25427620D02*
X33698095Y25427620D01*
X33983809Y25427620D02*
X33983809Y26427620D01*
X33888571Y26284762D01*
X33793333Y26189524D01*
X33698095Y26141905D01*
X31007619Y33967620D02*
X31579047Y33967620D01*
X31293333Y32967620D02*
X31293333Y33967620D01*
X31912380Y32967620D02*
X31912380Y33967620D01*
X32388571Y32967620D02*
X32388571Y33967620D01*
X32769523Y33967620D01*
X32864761Y33920000D01*
X32912380Y33872381D01*
X32960000Y33777143D01*
X32960000Y33634286D01*
X32912380Y33539048D01*
X32864761Y33491429D01*
X32769523Y33443810D01*
X32388571Y33443810D01*
X33912380Y32967620D02*
X33340952Y32967620D01*
X33626666Y32967620D02*
X33626666Y33967620D01*
X33531428Y33824762D01*
X33436190Y33729524D01*
X33340952Y33681905D01*
X34293333Y33872381D02*
X34340952Y33920000D01*
X34436190Y33967620D01*
X34674285Y33967620D01*
X34769523Y33920000D01*
X34817142Y33872381D01*
X34864761Y33777143D01*
X34864761Y33681905D01*
X34817142Y33539048D01*
X34245714Y32967620D01*
X34864761Y32967620D01*
X35245714Y33872381D02*
X35293333Y33920000D01*
X35388571Y33967620D01*
X35626666Y33967620D01*
X35721904Y33920000D01*
X35769523Y33872381D01*
X35817142Y33777143D01*
X35817142Y33681905D01*
X35769523Y33539048D01*
X35198095Y32967620D01*
X35817142Y32967620D01*
X39427619Y18944762D02*
X39380000Y18849524D01*
X39284761Y18754286D01*
X39141904Y18611429D01*
X39094285Y18516191D01*
X39094285Y18420953D01*
X39332380Y18468572D02*
X39284761Y18373334D01*
X39189523Y18278096D01*
X38999047Y18230477D01*
X38665714Y18230477D01*
X38475238Y18278096D01*
X38380000Y18373334D01*
X38332380Y18468572D01*
X38332380Y18659048D01*
X38380000Y18754286D01*
X38475238Y18849524D01*
X38665714Y18897143D01*
X38999047Y18897143D01*
X39189523Y18849524D01*
X39284761Y18754286D01*
X39332380Y18659048D01*
X39332380Y18468572D01*
X38427619Y19278096D02*
X38380000Y19325715D01*
X38332380Y19420953D01*
X38332380Y19659048D01*
X38380000Y19754286D01*
X38427619Y19801905D01*
X38522857Y19849524D01*
X38618095Y19849524D01*
X38760952Y19801905D01*
X39332380Y19230477D01*
X39332380Y19849524D01*
X45872380Y16587620D02*
X45872380Y17159048D01*
X46872380Y16873334D02*
X45872380Y16873334D01*
X46872380Y17492381D02*
X45872380Y17492381D01*
X46872380Y17968572D02*
X45872380Y17968572D01*
X45872380Y18349524D01*
X45920000Y18444762D01*
X45967619Y18492381D01*
X46062857Y18540000D01*
X46205714Y18540000D01*
X46300952Y18492381D01*
X46348571Y18444762D01*
X46396190Y18349524D01*
X46396190Y17968572D01*
X46872380Y19492381D02*
X46872380Y18920953D01*
X46872380Y19206667D02*
X45872380Y19206667D01*
X46015238Y19111429D01*
X46110476Y19016191D01*
X46158095Y18920953D01*
X45967619Y19873334D02*
X45920000Y19920953D01*
X45872380Y20016191D01*
X45872380Y20254286D01*
X45920000Y20349524D01*
X45967619Y20397143D01*
X46062857Y20444762D01*
X46158095Y20444762D01*
X46300952Y20397143D01*
X46872380Y19825715D01*
X46872380Y20444762D01*
X45967619Y20825715D02*
X45920000Y20873334D01*
X45872380Y20968572D01*
X45872380Y21206667D01*
X45920000Y21301905D01*
X45967619Y21349524D01*
X46062857Y21397143D01*
X46158095Y21397143D01*
X46300952Y21349524D01*
X46872380Y20778096D01*
X46872380Y21397143D01*
X39427619Y8444762D02*
X39380000Y8349524D01*
X39284761Y8254286D01*
X39141904Y8111429D01*
X39094285Y8016191D01*
X39094285Y7920953D01*
X39332380Y7968572D02*
X39284761Y7873334D01*
X39189523Y7778096D01*
X38999047Y7730477D01*
X38665714Y7730477D01*
X38475238Y7778096D01*
X38380000Y7873334D01*
X38332380Y7968572D01*
X38332380Y8159048D01*
X38380000Y8254286D01*
X38475238Y8349524D01*
X38665714Y8397143D01*
X38999047Y8397143D01*
X39189523Y8349524D01*
X39284761Y8254286D01*
X39332380Y8159048D01*
X39332380Y7968572D01*
X38332380Y8730477D02*
X38332380Y9349524D01*
X38713333Y9016191D01*
X38713333Y9159048D01*
X38760952Y9254286D01*
X38808571Y9301905D01*
X38903809Y9349524D01*
X39141904Y9349524D01*
X39237142Y9301905D01*
X39284761Y9254286D01*
X39332380Y9159048D01*
X39332380Y8873334D01*
X39284761Y8778096D01*
X39237142Y8730477D01*
X45872380Y6087620D02*
X45872380Y6659048D01*
X46872380Y6373334D02*
X45872380Y6373334D01*
X46872380Y6992381D02*
X45872380Y6992381D01*
X46872380Y7468572D02*
X45872380Y7468572D01*
X45872380Y7849524D01*
X45920000Y7944762D01*
X45967619Y7992381D01*
X46062857Y8040000D01*
X46205714Y8040000D01*
X46300952Y7992381D01*
X46348571Y7944762D01*
X46396190Y7849524D01*
X46396190Y7468572D01*
X46872380Y8992381D02*
X46872380Y8420953D01*
X46872380Y8706667D02*
X45872380Y8706667D01*
X46015238Y8611429D01*
X46110476Y8516191D01*
X46158095Y8420953D01*
X45967619Y9373334D02*
X45920000Y9420953D01*
X45872380Y9516191D01*
X45872380Y9754286D01*
X45920000Y9849524D01*
X45967619Y9897143D01*
X46062857Y9944762D01*
X46158095Y9944762D01*
X46300952Y9897143D01*
X46872380Y9325715D01*
X46872380Y9944762D01*
X45967619Y10325715D02*
X45920000Y10373334D01*
X45872380Y10468572D01*
X45872380Y10706667D01*
X45920000Y10801905D01*
X45967619Y10849524D01*
X46062857Y10897143D01*
X46158095Y10897143D01*
X46300952Y10849524D01*
X46872380Y10278096D01*
X46872380Y10897143D01*
M02*
