G04 #@! TF.GenerationSoftware,KiCad,Pcbnew,(5.0.0-rc2-dev-493-gd776eaca8)*
G04 #@! TF.CreationDate,2018-06-12T16:33:06-03:00*
G04 #@! TF.ProjectId,HDDriver,48444472697665722E6B696361645F70,rev?*
G04 #@! TF.SameCoordinates,PX6052340PY57bcf00*
G04 #@! TF.FileFunction,Copper,L2,Bot,Signal*
G04 #@! TF.FilePolarity,Positive*
%FSLAX46Y46*%
G04 Gerber Fmt 4.6, Leading zero omitted, Abs format (unit mm)*
G04 Created by KiCad (PCBNEW (5.0.0-rc2-dev-493-gd776eaca8)) date Tue Jun 12 16:33:06 2018*
%MOMM*%
%LPD*%
G01*
G04 APERTURE LIST*
%ADD10C,1.300000*%
%ADD11R,1.300000X1.300000*%
%ADD12R,3.500000X3.500000*%
%ADD13R,2.200000X2.200000*%
%ADD14O,2.200000X2.200000*%
%ADD15O,1.700000X1.700000*%
%ADD16R,1.700000X1.700000*%
%ADD17C,1.998980*%
%ADD18O,2.300000X1.600000*%
%ADD19R,1.800000X1.800000*%
%ADD20O,1.800000X1.800000*%
%ADD21C,1.000000*%
%ADD22C,0.254000*%
G04 APERTURE END LIST*
D10*
X15000000Y19500000D03*
D11*
X15000000Y16000000D03*
X20000000Y5000000D03*
D10*
X22500000Y5000000D03*
D12*
X10500000Y10500000D03*
X4500000Y10500000D03*
X7500000Y5800000D03*
D13*
X21500000Y21500000D03*
D14*
X29120000Y21500000D03*
X29120000Y18500000D03*
D13*
X21500000Y18500000D03*
X21500000Y15000000D03*
D14*
X29120000Y15000000D03*
D15*
X57340000Y28500000D03*
X59880000Y28500000D03*
X62420000Y28500000D03*
X64960000Y28500000D03*
D16*
X67500000Y28500000D03*
X33500000Y21500000D03*
D15*
X33500000Y18960000D03*
X33500000Y16420000D03*
X33500000Y13880000D03*
D17*
X43690000Y26500000D03*
X51310000Y26500000D03*
X54810000Y14500000D03*
X47190000Y14500000D03*
X46690000Y6000000D03*
X54310000Y6000000D03*
D18*
X67500000Y11500000D03*
X67500000Y14040000D03*
X67500000Y16580000D03*
X67500000Y19120000D03*
X59880000Y19120000D03*
X59880000Y16580000D03*
X59880000Y14040000D03*
X59880000Y11500000D03*
D19*
X16000000Y10500000D03*
D20*
X18540000Y10500000D03*
X21080000Y10500000D03*
D19*
X36000000Y29500000D03*
D20*
X33460000Y29500000D03*
X30920000Y29500000D03*
X42500000Y21580000D03*
X42500000Y19040000D03*
D19*
X42500000Y16500000D03*
X42500000Y6000000D03*
D20*
X42500000Y8540000D03*
X42500000Y11080000D03*
D21*
X10250000Y5800000D02*
X7500000Y5800000D01*
X15112792Y5800000D02*
X10250000Y5800000D01*
X18540000Y9227208D02*
X15112792Y5800000D01*
X18540000Y10500000D02*
X18540000Y9227208D01*
X67500000Y19120000D02*
X67500000Y28500000D01*
X16000000Y10500000D02*
X15000000Y10500000D01*
X15000000Y10500000D02*
X10500000Y10500000D01*
X21500000Y18000000D02*
X21500000Y21500000D01*
X24000000Y15000000D02*
X21500000Y15000000D01*
X27000000Y12000000D02*
X24000000Y15000000D01*
X33500000Y13880000D02*
X33500000Y12677919D01*
X31620000Y12000000D02*
X27000000Y12000000D01*
X33500000Y13880000D02*
X31620000Y12000000D01*
X22000000Y16000000D02*
X21500000Y16500000D01*
X27000000Y13000000D02*
X24000000Y16000000D01*
X34436001Y13563999D02*
X34436001Y14063999D01*
X34500000Y13500000D02*
X34436001Y13563999D01*
X32560002Y14000000D02*
X32500000Y14000000D01*
X21500000Y15000000D02*
X21500000Y16500000D01*
X33677919Y12677919D02*
X34500000Y13500000D01*
X31500000Y13000000D02*
X30376002Y13000000D01*
X33500000Y12677919D02*
X33677919Y12677919D01*
X34436001Y14063999D02*
X34030001Y14469999D01*
X32500000Y14000000D02*
X31500000Y13000000D01*
X21500000Y16500000D02*
X21500000Y18000000D01*
X34030001Y14469999D02*
X33030001Y14469999D01*
X33030001Y14469999D02*
X32560002Y14000000D01*
X30176001Y12799999D02*
X28063999Y12799999D01*
X30376002Y13000000D02*
X30176001Y12799999D01*
X28063999Y12799999D02*
X27863998Y13000000D01*
X27863998Y13000000D02*
X27000000Y13000000D01*
X21500000Y15000000D02*
X21500000Y16000000D01*
X21500000Y16000000D02*
X21500000Y18500000D01*
X20500000Y20500000D02*
X21500000Y21500000D01*
X20500000Y16500000D02*
X20500000Y20500000D01*
X21500000Y15000000D02*
X21500000Y15500000D01*
X21500000Y15500000D02*
X20500000Y16500000D01*
X22500000Y17000000D02*
X22500000Y20500000D01*
X22000000Y17000000D02*
X22500000Y17000000D01*
X22500000Y20500000D02*
X21500000Y21500000D01*
X21500000Y16000000D02*
X22000000Y16500000D01*
X22000000Y16500000D02*
X22000000Y17000000D01*
X32322081Y11500000D02*
X33500000Y12677919D01*
X26500000Y11500000D02*
X32322081Y11500000D01*
X20500000Y14000000D02*
X24000000Y14000000D01*
X23000000Y16500000D02*
X22500000Y17000000D01*
X23000000Y16000000D02*
X23000000Y16500000D01*
X23000000Y16000000D02*
X22000000Y16000000D01*
X24000000Y16000000D02*
X23000000Y16000000D01*
X18600000Y15000000D02*
X16000000Y12400000D01*
X16000000Y12400000D02*
X16000000Y10500000D01*
X21500000Y15000000D02*
X18600000Y15000000D01*
X15500000Y13000000D02*
X18500000Y16000000D01*
X15000000Y13000000D02*
X15500000Y13000000D01*
X20500000Y16500000D02*
X20500000Y16000000D01*
X20500000Y16000000D02*
X20500000Y14000000D01*
X18500000Y16000000D02*
X19000000Y16000000D01*
X19000000Y16000000D02*
X20500000Y16000000D01*
X15000000Y14500000D02*
X16500000Y16000000D01*
X15000000Y14000000D02*
X15000000Y14500000D01*
X16500000Y16000000D02*
X19000000Y16000000D01*
X15000000Y16000000D02*
X16500000Y16000000D01*
X15000000Y16000000D02*
X15000000Y14000000D01*
X15000000Y13500000D02*
X17000000Y15500000D01*
X15000000Y13500000D02*
X15000000Y13000000D01*
X15000000Y14000000D02*
X15000000Y13500000D01*
X13350000Y16000000D02*
X10000000Y12650000D01*
X15000000Y16000000D02*
X13350000Y16000000D01*
X10000000Y11000000D02*
X10500000Y10500000D01*
X10000000Y12650000D02*
X10000000Y11000000D01*
X10500000Y10500000D02*
X10500000Y12000000D01*
X10500000Y12000000D02*
X13500000Y15000000D01*
X13500000Y15000000D02*
X14500000Y15000000D01*
X13500000Y14000000D02*
X14000000Y13500000D01*
X14000000Y13500000D02*
X14000000Y11500000D01*
X14000000Y11500000D02*
X13500000Y12000000D01*
X13500000Y12000000D02*
X12500000Y12000000D01*
X12500000Y12000000D02*
X13500000Y13000000D01*
X14500000Y14000000D02*
X13500000Y14000000D01*
X14500000Y15000000D02*
X14500000Y14000000D01*
X13500000Y14000000D02*
X12000000Y12500000D01*
X15000000Y11500000D02*
X12500000Y11500000D01*
X15000000Y11500000D02*
X15000000Y10500000D01*
X15000000Y13000000D02*
X15000000Y11500000D01*
X12000000Y9000000D02*
X10500000Y10500000D01*
X16000000Y10500000D02*
X14500000Y9000000D01*
X14500000Y9000000D02*
X12000000Y9000000D01*
X15000000Y10500000D02*
X14000000Y9500000D01*
X14000000Y9500000D02*
X12500000Y9500000D01*
X18400000Y14000000D02*
X20500000Y14000000D01*
X16539999Y12139999D02*
X18400000Y14000000D01*
X16500000Y10500000D02*
X16539999Y10539999D01*
X16000000Y10500000D02*
X16500000Y10500000D01*
X16579998Y11500000D02*
X18579998Y13500000D01*
X16539999Y11500000D02*
X16579998Y11500000D01*
X16539999Y11500000D02*
X16539999Y12139999D01*
X16539999Y10539999D02*
X16539999Y11500000D01*
X18579998Y13500000D02*
X23500000Y13500000D01*
X23500000Y13500000D02*
X24500000Y13500000D01*
X24000000Y14000000D02*
X24500000Y13500000D01*
X24500000Y13500000D02*
X26500000Y11500000D01*
X20000000Y5000000D02*
X20000000Y7000000D01*
X21080000Y8080000D02*
X21080000Y10500000D01*
X20000000Y7000000D02*
X21080000Y8080000D01*
X55317757Y3900509D02*
X27599491Y3900509D01*
X59880000Y11500000D02*
X59880000Y8462752D01*
X59880000Y8462752D02*
X55317757Y3900509D01*
X27599491Y3900509D02*
X24500000Y7000000D01*
X24500000Y7000000D02*
X20000000Y7000000D01*
X29120000Y21500000D02*
X33500000Y21500000D01*
X33460000Y21540000D02*
X33500000Y21500000D01*
X33460000Y29500000D02*
X33460000Y21540000D01*
X29120000Y18500000D02*
X31000000Y18500000D01*
X31460000Y18960000D02*
X33500000Y18960000D01*
X31000000Y18500000D02*
X31460000Y18960000D01*
X42420000Y18960000D02*
X42500000Y19040000D01*
X33500000Y18960000D02*
X42420000Y18960000D01*
X30540000Y16420000D02*
X33500000Y16420000D01*
X29120000Y15000000D02*
X30540000Y16420000D01*
X41227208Y8540000D02*
X37000000Y12767208D01*
X42500000Y8540000D02*
X41227208Y8540000D01*
X37000000Y12767208D02*
X37000000Y15000000D01*
X35580000Y16420000D02*
X33500000Y16420000D01*
X37000000Y15000000D02*
X35580000Y16420000D01*
X57340000Y29702081D02*
X58637919Y31000000D01*
X57340000Y28500000D02*
X57340000Y29702081D01*
X68680002Y31000000D02*
X70000000Y29680002D01*
X58637919Y31000000D02*
X68680002Y31000000D01*
X69650000Y11500000D02*
X67500000Y11500000D01*
X70000000Y11850000D02*
X69650000Y11500000D01*
X70000000Y29680002D02*
X70000000Y11850000D01*
X58690000Y19120000D02*
X59880000Y19120000D01*
X51310000Y26500000D02*
X58690000Y19120000D01*
X59880000Y19120000D02*
X59880000Y28500000D01*
X56890000Y16580000D02*
X54810000Y14500000D01*
X59880000Y16580000D02*
X56890000Y16580000D01*
X62420000Y27297919D02*
X62420000Y28500000D01*
X62420000Y16970000D02*
X62420000Y27297919D01*
X62030000Y16580000D02*
X62420000Y16970000D01*
X59880000Y16580000D02*
X62030000Y16580000D01*
X57730000Y14040000D02*
X59880000Y14040000D01*
X55309489Y11619489D02*
X57730000Y14040000D01*
X55309489Y6999489D02*
X55309489Y11619489D01*
X54310000Y6000000D02*
X55309489Y6999489D01*
X64960000Y27297919D02*
X64960000Y28500000D01*
X64960000Y26460000D02*
X64960000Y27297919D01*
X64020010Y25520010D02*
X64960000Y26460000D01*
X64020010Y16030010D02*
X64020010Y25520010D01*
X59880000Y14040000D02*
X62030000Y14040000D01*
X62030000Y14040000D02*
X64020010Y16030010D01*
X40690000Y29500000D02*
X43690000Y26500000D01*
X36000000Y29500000D02*
X40690000Y29500000D01*
X45190000Y16500000D02*
X42500000Y16500000D01*
X47190000Y14500000D02*
X45190000Y16500000D01*
X42500000Y6000000D02*
X46690000Y6000000D01*
D22*
G36*
X71265001Y735000D02*
X735000Y735000D01*
X735000Y12250000D01*
X8008758Y12250000D01*
X8008758Y8750000D01*
X8065182Y8466339D01*
X8225863Y8225863D01*
X8466339Y8065182D01*
X8750000Y8008758D01*
X11274958Y8008758D01*
X11349197Y7959153D01*
X11521248Y7844192D01*
X11879153Y7773000D01*
X11879156Y7773000D01*
X11999999Y7748963D01*
X12120842Y7773000D01*
X14379157Y7773000D01*
X14500000Y7748963D01*
X14620843Y7773000D01*
X14620847Y7773000D01*
X14978752Y7844192D01*
X15384617Y8115383D01*
X15453072Y8217833D01*
X16093997Y8858758D01*
X16900000Y8858758D01*
X17183661Y8915182D01*
X17424137Y9075863D01*
X17584818Y9316339D01*
X17641242Y9600000D01*
X17641242Y9979585D01*
X17695807Y10061247D01*
X17766999Y10419152D01*
X17766999Y10419156D01*
X17791036Y10539998D01*
X17766999Y10660841D01*
X17766999Y10951762D01*
X19088238Y12273000D01*
X23991761Y12273000D01*
X25546930Y10717830D01*
X25615383Y10615383D01*
X25717830Y10546930D01*
X25717831Y10546929D01*
X25788065Y10500000D01*
X26021248Y10344192D01*
X26379153Y10273000D01*
X26379156Y10273000D01*
X26499999Y10248963D01*
X26620842Y10273000D01*
X32201238Y10273000D01*
X32322081Y10248963D01*
X32442924Y10273000D01*
X32442928Y10273000D01*
X32800833Y10344192D01*
X33206698Y10615383D01*
X33275153Y10717833D01*
X34060253Y11502932D01*
X34156671Y11522111D01*
X34562536Y11793302D01*
X34630991Y11895752D01*
X35282170Y12546930D01*
X35384617Y12615383D01*
X35453069Y12717829D01*
X35453071Y12717831D01*
X35655808Y13021249D01*
X35751037Y13499999D01*
X35746811Y13521248D01*
X35663001Y13942589D01*
X35663001Y13943156D01*
X35687038Y14063999D01*
X35663001Y14184842D01*
X35663001Y14184845D01*
X35591809Y14542750D01*
X35329626Y14935135D01*
X35773001Y14491760D01*
X35773000Y12888051D01*
X35748963Y12767208D01*
X35773000Y12646365D01*
X35773000Y12646362D01*
X35844192Y12288457D01*
X36115383Y11882591D01*
X36217833Y11814136D01*
X40274138Y7757830D01*
X40342591Y7655383D01*
X40445038Y7586930D01*
X40445039Y7586929D01*
X40530965Y7529515D01*
X40748456Y7384192D01*
X41013893Y7331393D01*
X40915182Y7183661D01*
X40858758Y6900000D01*
X40858758Y5127509D01*
X28107731Y5127509D01*
X25453071Y7782168D01*
X25384617Y7884617D01*
X24978752Y8155808D01*
X24620847Y8227000D01*
X24620843Y8227000D01*
X24500000Y8251037D01*
X24379157Y8227000D01*
X22307000Y8227000D01*
X22307000Y9407814D01*
X22612600Y9865176D01*
X22738874Y10500000D01*
X22612600Y11134824D01*
X22253001Y11673001D01*
X21714824Y12032600D01*
X21240242Y12127000D01*
X20919758Y12127000D01*
X20445176Y12032600D01*
X19906999Y11673001D01*
X19547400Y11134824D01*
X19421126Y10500000D01*
X19547400Y9865176D01*
X19853001Y9407813D01*
X19853000Y8588241D01*
X19217832Y7953072D01*
X19115383Y7884617D01*
X18844192Y7478752D01*
X18748962Y7000000D01*
X18773001Y6879149D01*
X18773001Y6095023D01*
X18665182Y5933661D01*
X18608758Y5650000D01*
X18608758Y4350000D01*
X18665182Y4066339D01*
X18825863Y3825863D01*
X19066339Y3665182D01*
X19350000Y3608758D01*
X20650000Y3608758D01*
X20933661Y3665182D01*
X21174137Y3825863D01*
X21334818Y4066339D01*
X21391242Y4350000D01*
X21391242Y5650000D01*
X21366776Y5773000D01*
X23991761Y5773000D01*
X26646421Y3118339D01*
X26714874Y3015892D01*
X27120739Y2744701D01*
X27478644Y2673509D01*
X27478647Y2673509D01*
X27599490Y2649472D01*
X27720333Y2673509D01*
X55196914Y2673509D01*
X55317757Y2649472D01*
X55438600Y2673509D01*
X55438604Y2673509D01*
X55796509Y2744701D01*
X56202374Y3015892D01*
X56270829Y3118342D01*
X60662170Y7509682D01*
X60764617Y7578135D01*
X61035808Y7984000D01*
X61107000Y8341905D01*
X61107000Y8341909D01*
X61131037Y8462752D01*
X61107000Y8583595D01*
X61107000Y10249486D01*
X61330905Y10399095D01*
X61668402Y10904194D01*
X61786915Y11500000D01*
X61668402Y12095806D01*
X61330905Y12600905D01*
X61077837Y12770000D01*
X61142191Y12813000D01*
X61909157Y12813000D01*
X62030000Y12788963D01*
X62150843Y12813000D01*
X62150847Y12813000D01*
X62508752Y12884192D01*
X62914617Y13155383D01*
X62983072Y13257833D01*
X64802180Y15076940D01*
X64904627Y15145393D01*
X64973831Y15248963D01*
X65090915Y15424192D01*
X65175818Y15551258D01*
X65247010Y15909163D01*
X65247010Y15909166D01*
X65271047Y16030009D01*
X65247010Y16150852D01*
X65247010Y25011770D01*
X65742172Y25506932D01*
X65844617Y25575383D01*
X65913068Y25677827D01*
X65913072Y25677831D01*
X66045698Y25876321D01*
X66115808Y25981248D01*
X66187000Y26339153D01*
X66187000Y26339157D01*
X66211037Y26460000D01*
X66187000Y26580843D01*
X66187000Y27497812D01*
X66445501Y27884685D01*
X66567895Y28500000D01*
X66445501Y29115315D01*
X66096953Y29636953D01*
X65893345Y29773000D01*
X68171763Y29773000D01*
X68773000Y29171762D01*
X68773001Y17799777D01*
X68445806Y18018402D01*
X68000393Y18107000D01*
X66999607Y18107000D01*
X66554194Y18018402D01*
X66049095Y17680905D01*
X65711598Y17175806D01*
X65593085Y16580000D01*
X65711598Y15984194D01*
X66049095Y15479095D01*
X66302163Y15310000D01*
X66049095Y15140905D01*
X65711598Y14635806D01*
X65593085Y14040000D01*
X65711598Y13444194D01*
X66049095Y12939095D01*
X66302163Y12770000D01*
X66049095Y12600905D01*
X65711598Y12095806D01*
X65593085Y11500000D01*
X65711598Y10904194D01*
X66049095Y10399095D01*
X66554194Y10061598D01*
X66999607Y9973000D01*
X68000393Y9973000D01*
X68445806Y10061598D01*
X68762191Y10273000D01*
X69529157Y10273000D01*
X69650000Y10248963D01*
X69770843Y10273000D01*
X69770847Y10273000D01*
X70128752Y10344192D01*
X70534617Y10615383D01*
X70603072Y10717833D01*
X70782167Y10896928D01*
X70884617Y10965383D01*
X71155808Y11371248D01*
X71227000Y11729153D01*
X71227000Y11729157D01*
X71251037Y11850000D01*
X71227000Y11970843D01*
X71227000Y29559160D01*
X71251037Y29680003D01*
X71227000Y29800848D01*
X71227000Y29800849D01*
X71155808Y30158754D01*
X70884617Y30564619D01*
X70782170Y30633072D01*
X69633074Y31782167D01*
X69564619Y31884617D01*
X69158754Y32155808D01*
X68800849Y32227000D01*
X68800845Y32227000D01*
X68680002Y32251037D01*
X68559159Y32227000D01*
X58758762Y32227000D01*
X58637919Y32251037D01*
X58517076Y32227000D01*
X58517072Y32227000D01*
X58159167Y32155808D01*
X57753302Y31884617D01*
X57684849Y31782169D01*
X56557831Y30655151D01*
X56455384Y30586698D01*
X56184192Y30180833D01*
X56113000Y29822928D01*
X56113000Y29822924D01*
X56088963Y29702081D01*
X56113000Y29581238D01*
X56113000Y29502188D01*
X55854499Y29115315D01*
X55732105Y28500000D01*
X55854499Y27884685D01*
X56203047Y27363047D01*
X56724685Y27014499D01*
X57184681Y26923000D01*
X57495319Y26923000D01*
X57955315Y27014499D01*
X58476953Y27363047D01*
X58610000Y27562166D01*
X58653001Y27497810D01*
X58653000Y20892240D01*
X53036490Y26508749D01*
X53036490Y26843420D01*
X52773648Y27477978D01*
X52287978Y27963648D01*
X51653420Y28226490D01*
X50966580Y28226490D01*
X50332022Y27963648D01*
X49846352Y27477978D01*
X49583510Y26843420D01*
X49583510Y26156580D01*
X49846352Y25522022D01*
X50332022Y25036352D01*
X50966580Y24773510D01*
X51301251Y24773510D01*
X57736930Y18337830D01*
X57805383Y18235383D01*
X57907830Y18166930D01*
X57907831Y18166929D01*
X57969373Y18125808D01*
X58211248Y17964192D01*
X58569153Y17893000D01*
X58569156Y17893000D01*
X58638432Y17879220D01*
X58682163Y17850000D01*
X58617809Y17807000D01*
X57010842Y17807000D01*
X56889999Y17831037D01*
X56769156Y17807000D01*
X56769153Y17807000D01*
X56411248Y17735808D01*
X56171792Y17575808D01*
X56005383Y17464617D01*
X55936930Y17362170D01*
X54801251Y16226490D01*
X54466580Y16226490D01*
X53832022Y15963648D01*
X53346352Y15477978D01*
X53083510Y14843420D01*
X53083510Y14156580D01*
X53346352Y13522022D01*
X53832022Y13036352D01*
X54466580Y12773510D01*
X54728271Y12773510D01*
X54527320Y12572559D01*
X54424873Y12504106D01*
X54356420Y12401659D01*
X54356418Y12401657D01*
X54262331Y12260846D01*
X54182415Y12141242D01*
X54153681Y12098239D01*
X54058452Y11619489D01*
X54082490Y11498642D01*
X54082489Y7726490D01*
X53966580Y7726490D01*
X53332022Y7463648D01*
X52846352Y6977978D01*
X52583510Y6343420D01*
X52583510Y5656580D01*
X52802658Y5127509D01*
X48197342Y5127509D01*
X48416490Y5656580D01*
X48416490Y6343420D01*
X48153648Y6977978D01*
X47667978Y7463648D01*
X47033420Y7726490D01*
X46346580Y7726490D01*
X45712022Y7463648D01*
X45475374Y7227000D01*
X44055860Y7227000D01*
X43924137Y7424137D01*
X43776911Y7522511D01*
X44032600Y7905176D01*
X44158874Y8540000D01*
X44032600Y9174824D01*
X43673001Y9713001D01*
X43134824Y10072600D01*
X42660242Y10167000D01*
X42339758Y10167000D01*
X41865176Y10072600D01*
X41604216Y9898232D01*
X38227000Y13275447D01*
X38227000Y14879158D01*
X38251037Y15000001D01*
X38227000Y15120846D01*
X38227000Y15120847D01*
X38155808Y15478752D01*
X38117968Y15535383D01*
X37953071Y15782169D01*
X37953070Y15782170D01*
X37884617Y15884617D01*
X37782169Y15953071D01*
X36533072Y17202167D01*
X36464617Y17304617D01*
X36058752Y17575808D01*
X35700847Y17647000D01*
X35700843Y17647000D01*
X35580000Y17671037D01*
X35459157Y17647000D01*
X34502188Y17647000D01*
X34437834Y17690000D01*
X34502188Y17733000D01*
X40948149Y17733000D01*
X40915182Y17683661D01*
X40858758Y17400000D01*
X40858758Y15600000D01*
X40915182Y15316339D01*
X41075863Y15075863D01*
X41316339Y14915182D01*
X41600000Y14858758D01*
X43400000Y14858758D01*
X43683661Y14915182D01*
X43924137Y15075863D01*
X44055860Y15273000D01*
X44681761Y15273000D01*
X45463510Y14491250D01*
X45463510Y14156580D01*
X45726352Y13522022D01*
X46212022Y13036352D01*
X46846580Y12773510D01*
X47533420Y12773510D01*
X48167978Y13036352D01*
X48653648Y13522022D01*
X48916490Y14156580D01*
X48916490Y14843420D01*
X48653648Y15477978D01*
X48167978Y15963648D01*
X47533420Y16226490D01*
X47198750Y16226490D01*
X46143071Y17282168D01*
X46074617Y17384617D01*
X45668752Y17655808D01*
X45310847Y17727000D01*
X45310843Y17727000D01*
X45190000Y17751037D01*
X45069157Y17727000D01*
X44055860Y17727000D01*
X43924137Y17924137D01*
X43776911Y18022511D01*
X44032600Y18405176D01*
X44158874Y19040000D01*
X44032600Y19674824D01*
X43673001Y20213001D01*
X43134824Y20572600D01*
X42660242Y20667000D01*
X42339758Y20667000D01*
X41865176Y20572600D01*
X41326999Y20213001D01*
X41309626Y20187000D01*
X34914987Y20187000D01*
X35034818Y20366339D01*
X35091242Y20650000D01*
X35091242Y22350000D01*
X35034818Y22633661D01*
X34874137Y22874137D01*
X34687000Y22999178D01*
X34687000Y28001604D01*
X34816339Y27915182D01*
X35100000Y27858758D01*
X36900000Y27858758D01*
X37183661Y27915182D01*
X37424137Y28075863D01*
X37555860Y28273000D01*
X40181761Y28273000D01*
X41963510Y26491250D01*
X41963510Y26156580D01*
X42226352Y25522022D01*
X42712022Y25036352D01*
X43346580Y24773510D01*
X44033420Y24773510D01*
X44667978Y25036352D01*
X45153648Y25522022D01*
X45416490Y26156580D01*
X45416490Y26843420D01*
X45153648Y27477978D01*
X44667978Y27963648D01*
X44033420Y28226490D01*
X43698750Y28226490D01*
X41643072Y30282167D01*
X41574617Y30384617D01*
X41168752Y30655808D01*
X40810847Y30727000D01*
X40810843Y30727000D01*
X40690000Y30751037D01*
X40569157Y30727000D01*
X37555860Y30727000D01*
X37424137Y30924137D01*
X37183661Y31084818D01*
X36900000Y31141242D01*
X35100000Y31141242D01*
X34816339Y31084818D01*
X34575863Y30924137D01*
X34477489Y30776911D01*
X34094824Y31032600D01*
X33620242Y31127000D01*
X33299758Y31127000D01*
X32825176Y31032600D01*
X32286999Y30673001D01*
X31927400Y30134824D01*
X31801126Y29500000D01*
X31927400Y28865176D01*
X32233000Y28407814D01*
X32233001Y22945724D01*
X32125863Y22874137D01*
X32027549Y22727000D01*
X30497460Y22727000D01*
X30437194Y22817194D01*
X29832860Y23220996D01*
X29299943Y23327000D01*
X28940057Y23327000D01*
X28407140Y23220996D01*
X27802806Y22817194D01*
X27399004Y22212860D01*
X27257207Y21500000D01*
X27399004Y20787140D01*
X27802806Y20182806D01*
X28076395Y20000000D01*
X27802806Y19817194D01*
X27399004Y19212860D01*
X27257207Y18500000D01*
X27399004Y17787140D01*
X27802806Y17182806D01*
X28407140Y16779004D01*
X28552953Y16750000D01*
X28407140Y16720996D01*
X27802806Y16317194D01*
X27399004Y15712860D01*
X27257207Y15000000D01*
X27386813Y14348426D01*
X24953071Y16782168D01*
X24884617Y16884617D01*
X24478752Y17155808D01*
X24120847Y17227000D01*
X24120843Y17227000D01*
X24000000Y17251037D01*
X23976938Y17246450D01*
X23884617Y17384617D01*
X23782167Y17453072D01*
X23727000Y17508239D01*
X23727000Y20379157D01*
X23751037Y20500000D01*
X23727000Y20620843D01*
X23727000Y20620847D01*
X23655808Y20978752D01*
X23548636Y21139146D01*
X23453072Y21282168D01*
X23453070Y21282170D01*
X23384617Y21384617D01*
X23341242Y21413599D01*
X23341242Y22600000D01*
X23284818Y22883661D01*
X23124137Y23124137D01*
X22883661Y23284818D01*
X22600000Y23341242D01*
X20400000Y23341242D01*
X20116339Y23284818D01*
X19875863Y23124137D01*
X19715182Y22883661D01*
X19658758Y22600000D01*
X19658758Y21413599D01*
X19615384Y21384617D01*
X19546931Y21282170D01*
X19546929Y21282168D01*
X19417347Y21088235D01*
X19372590Y21021250D01*
X19344192Y20978750D01*
X19248963Y20500000D01*
X19273001Y20379153D01*
X19273000Y17227000D01*
X18620843Y17227000D01*
X18500000Y17251037D01*
X18379157Y17227000D01*
X16620842Y17227000D01*
X16499999Y17251037D01*
X16379156Y17227000D01*
X16095022Y17227000D01*
X15933661Y17334818D01*
X15650000Y17391242D01*
X14350000Y17391242D01*
X14066339Y17334818D01*
X13904978Y17227000D01*
X13470842Y17227000D01*
X13349999Y17251037D01*
X13229156Y17227000D01*
X13229153Y17227000D01*
X12871248Y17155808D01*
X12606263Y16978750D01*
X12465383Y16884617D01*
X12396930Y16782170D01*
X9217833Y13603072D01*
X9115383Y13534617D01*
X8844192Y13128751D01*
X8816840Y12991242D01*
X8750000Y12991242D01*
X8466339Y12934818D01*
X8225863Y12774137D01*
X8065182Y12533661D01*
X8008758Y12250000D01*
X735000Y12250000D01*
X735000Y33265000D01*
X71265000Y33265000D01*
X71265001Y735000D01*
X71265001Y735000D01*
G37*
X71265001Y735000D02*
X735000Y735000D01*
X735000Y12250000D01*
X8008758Y12250000D01*
X8008758Y8750000D01*
X8065182Y8466339D01*
X8225863Y8225863D01*
X8466339Y8065182D01*
X8750000Y8008758D01*
X11274958Y8008758D01*
X11349197Y7959153D01*
X11521248Y7844192D01*
X11879153Y7773000D01*
X11879156Y7773000D01*
X11999999Y7748963D01*
X12120842Y7773000D01*
X14379157Y7773000D01*
X14500000Y7748963D01*
X14620843Y7773000D01*
X14620847Y7773000D01*
X14978752Y7844192D01*
X15384617Y8115383D01*
X15453072Y8217833D01*
X16093997Y8858758D01*
X16900000Y8858758D01*
X17183661Y8915182D01*
X17424137Y9075863D01*
X17584818Y9316339D01*
X17641242Y9600000D01*
X17641242Y9979585D01*
X17695807Y10061247D01*
X17766999Y10419152D01*
X17766999Y10419156D01*
X17791036Y10539998D01*
X17766999Y10660841D01*
X17766999Y10951762D01*
X19088238Y12273000D01*
X23991761Y12273000D01*
X25546930Y10717830D01*
X25615383Y10615383D01*
X25717830Y10546930D01*
X25717831Y10546929D01*
X25788065Y10500000D01*
X26021248Y10344192D01*
X26379153Y10273000D01*
X26379156Y10273000D01*
X26499999Y10248963D01*
X26620842Y10273000D01*
X32201238Y10273000D01*
X32322081Y10248963D01*
X32442924Y10273000D01*
X32442928Y10273000D01*
X32800833Y10344192D01*
X33206698Y10615383D01*
X33275153Y10717833D01*
X34060253Y11502932D01*
X34156671Y11522111D01*
X34562536Y11793302D01*
X34630991Y11895752D01*
X35282170Y12546930D01*
X35384617Y12615383D01*
X35453069Y12717829D01*
X35453071Y12717831D01*
X35655808Y13021249D01*
X35751037Y13499999D01*
X35746811Y13521248D01*
X35663001Y13942589D01*
X35663001Y13943156D01*
X35687038Y14063999D01*
X35663001Y14184842D01*
X35663001Y14184845D01*
X35591809Y14542750D01*
X35329626Y14935135D01*
X35773001Y14491760D01*
X35773000Y12888051D01*
X35748963Y12767208D01*
X35773000Y12646365D01*
X35773000Y12646362D01*
X35844192Y12288457D01*
X36115383Y11882591D01*
X36217833Y11814136D01*
X40274138Y7757830D01*
X40342591Y7655383D01*
X40445038Y7586930D01*
X40445039Y7586929D01*
X40530965Y7529515D01*
X40748456Y7384192D01*
X41013893Y7331393D01*
X40915182Y7183661D01*
X40858758Y6900000D01*
X40858758Y5127509D01*
X28107731Y5127509D01*
X25453071Y7782168D01*
X25384617Y7884617D01*
X24978752Y8155808D01*
X24620847Y8227000D01*
X24620843Y8227000D01*
X24500000Y8251037D01*
X24379157Y8227000D01*
X22307000Y8227000D01*
X22307000Y9407814D01*
X22612600Y9865176D01*
X22738874Y10500000D01*
X22612600Y11134824D01*
X22253001Y11673001D01*
X21714824Y12032600D01*
X21240242Y12127000D01*
X20919758Y12127000D01*
X20445176Y12032600D01*
X19906999Y11673001D01*
X19547400Y11134824D01*
X19421126Y10500000D01*
X19547400Y9865176D01*
X19853001Y9407813D01*
X19853000Y8588241D01*
X19217832Y7953072D01*
X19115383Y7884617D01*
X18844192Y7478752D01*
X18748962Y7000000D01*
X18773001Y6879149D01*
X18773001Y6095023D01*
X18665182Y5933661D01*
X18608758Y5650000D01*
X18608758Y4350000D01*
X18665182Y4066339D01*
X18825863Y3825863D01*
X19066339Y3665182D01*
X19350000Y3608758D01*
X20650000Y3608758D01*
X20933661Y3665182D01*
X21174137Y3825863D01*
X21334818Y4066339D01*
X21391242Y4350000D01*
X21391242Y5650000D01*
X21366776Y5773000D01*
X23991761Y5773000D01*
X26646421Y3118339D01*
X26714874Y3015892D01*
X27120739Y2744701D01*
X27478644Y2673509D01*
X27478647Y2673509D01*
X27599490Y2649472D01*
X27720333Y2673509D01*
X55196914Y2673509D01*
X55317757Y2649472D01*
X55438600Y2673509D01*
X55438604Y2673509D01*
X55796509Y2744701D01*
X56202374Y3015892D01*
X56270829Y3118342D01*
X60662170Y7509682D01*
X60764617Y7578135D01*
X61035808Y7984000D01*
X61107000Y8341905D01*
X61107000Y8341909D01*
X61131037Y8462752D01*
X61107000Y8583595D01*
X61107000Y10249486D01*
X61330905Y10399095D01*
X61668402Y10904194D01*
X61786915Y11500000D01*
X61668402Y12095806D01*
X61330905Y12600905D01*
X61077837Y12770000D01*
X61142191Y12813000D01*
X61909157Y12813000D01*
X62030000Y12788963D01*
X62150843Y12813000D01*
X62150847Y12813000D01*
X62508752Y12884192D01*
X62914617Y13155383D01*
X62983072Y13257833D01*
X64802180Y15076940D01*
X64904627Y15145393D01*
X64973831Y15248963D01*
X65090915Y15424192D01*
X65175818Y15551258D01*
X65247010Y15909163D01*
X65247010Y15909166D01*
X65271047Y16030009D01*
X65247010Y16150852D01*
X65247010Y25011770D01*
X65742172Y25506932D01*
X65844617Y25575383D01*
X65913068Y25677827D01*
X65913072Y25677831D01*
X66045698Y25876321D01*
X66115808Y25981248D01*
X66187000Y26339153D01*
X66187000Y26339157D01*
X66211037Y26460000D01*
X66187000Y26580843D01*
X66187000Y27497812D01*
X66445501Y27884685D01*
X66567895Y28500000D01*
X66445501Y29115315D01*
X66096953Y29636953D01*
X65893345Y29773000D01*
X68171763Y29773000D01*
X68773000Y29171762D01*
X68773001Y17799777D01*
X68445806Y18018402D01*
X68000393Y18107000D01*
X66999607Y18107000D01*
X66554194Y18018402D01*
X66049095Y17680905D01*
X65711598Y17175806D01*
X65593085Y16580000D01*
X65711598Y15984194D01*
X66049095Y15479095D01*
X66302163Y15310000D01*
X66049095Y15140905D01*
X65711598Y14635806D01*
X65593085Y14040000D01*
X65711598Y13444194D01*
X66049095Y12939095D01*
X66302163Y12770000D01*
X66049095Y12600905D01*
X65711598Y12095806D01*
X65593085Y11500000D01*
X65711598Y10904194D01*
X66049095Y10399095D01*
X66554194Y10061598D01*
X66999607Y9973000D01*
X68000393Y9973000D01*
X68445806Y10061598D01*
X68762191Y10273000D01*
X69529157Y10273000D01*
X69650000Y10248963D01*
X69770843Y10273000D01*
X69770847Y10273000D01*
X70128752Y10344192D01*
X70534617Y10615383D01*
X70603072Y10717833D01*
X70782167Y10896928D01*
X70884617Y10965383D01*
X71155808Y11371248D01*
X71227000Y11729153D01*
X71227000Y11729157D01*
X71251037Y11850000D01*
X71227000Y11970843D01*
X71227000Y29559160D01*
X71251037Y29680003D01*
X71227000Y29800848D01*
X71227000Y29800849D01*
X71155808Y30158754D01*
X70884617Y30564619D01*
X70782170Y30633072D01*
X69633074Y31782167D01*
X69564619Y31884617D01*
X69158754Y32155808D01*
X68800849Y32227000D01*
X68800845Y32227000D01*
X68680002Y32251037D01*
X68559159Y32227000D01*
X58758762Y32227000D01*
X58637919Y32251037D01*
X58517076Y32227000D01*
X58517072Y32227000D01*
X58159167Y32155808D01*
X57753302Y31884617D01*
X57684849Y31782169D01*
X56557831Y30655151D01*
X56455384Y30586698D01*
X56184192Y30180833D01*
X56113000Y29822928D01*
X56113000Y29822924D01*
X56088963Y29702081D01*
X56113000Y29581238D01*
X56113000Y29502188D01*
X55854499Y29115315D01*
X55732105Y28500000D01*
X55854499Y27884685D01*
X56203047Y27363047D01*
X56724685Y27014499D01*
X57184681Y26923000D01*
X57495319Y26923000D01*
X57955315Y27014499D01*
X58476953Y27363047D01*
X58610000Y27562166D01*
X58653001Y27497810D01*
X58653000Y20892240D01*
X53036490Y26508749D01*
X53036490Y26843420D01*
X52773648Y27477978D01*
X52287978Y27963648D01*
X51653420Y28226490D01*
X50966580Y28226490D01*
X50332022Y27963648D01*
X49846352Y27477978D01*
X49583510Y26843420D01*
X49583510Y26156580D01*
X49846352Y25522022D01*
X50332022Y25036352D01*
X50966580Y24773510D01*
X51301251Y24773510D01*
X57736930Y18337830D01*
X57805383Y18235383D01*
X57907830Y18166930D01*
X57907831Y18166929D01*
X57969373Y18125808D01*
X58211248Y17964192D01*
X58569153Y17893000D01*
X58569156Y17893000D01*
X58638432Y17879220D01*
X58682163Y17850000D01*
X58617809Y17807000D01*
X57010842Y17807000D01*
X56889999Y17831037D01*
X56769156Y17807000D01*
X56769153Y17807000D01*
X56411248Y17735808D01*
X56171792Y17575808D01*
X56005383Y17464617D01*
X55936930Y17362170D01*
X54801251Y16226490D01*
X54466580Y16226490D01*
X53832022Y15963648D01*
X53346352Y15477978D01*
X53083510Y14843420D01*
X53083510Y14156580D01*
X53346352Y13522022D01*
X53832022Y13036352D01*
X54466580Y12773510D01*
X54728271Y12773510D01*
X54527320Y12572559D01*
X54424873Y12504106D01*
X54356420Y12401659D01*
X54356418Y12401657D01*
X54262331Y12260846D01*
X54182415Y12141242D01*
X54153681Y12098239D01*
X54058452Y11619489D01*
X54082490Y11498642D01*
X54082489Y7726490D01*
X53966580Y7726490D01*
X53332022Y7463648D01*
X52846352Y6977978D01*
X52583510Y6343420D01*
X52583510Y5656580D01*
X52802658Y5127509D01*
X48197342Y5127509D01*
X48416490Y5656580D01*
X48416490Y6343420D01*
X48153648Y6977978D01*
X47667978Y7463648D01*
X47033420Y7726490D01*
X46346580Y7726490D01*
X45712022Y7463648D01*
X45475374Y7227000D01*
X44055860Y7227000D01*
X43924137Y7424137D01*
X43776911Y7522511D01*
X44032600Y7905176D01*
X44158874Y8540000D01*
X44032600Y9174824D01*
X43673001Y9713001D01*
X43134824Y10072600D01*
X42660242Y10167000D01*
X42339758Y10167000D01*
X41865176Y10072600D01*
X41604216Y9898232D01*
X38227000Y13275447D01*
X38227000Y14879158D01*
X38251037Y15000001D01*
X38227000Y15120846D01*
X38227000Y15120847D01*
X38155808Y15478752D01*
X38117968Y15535383D01*
X37953071Y15782169D01*
X37953070Y15782170D01*
X37884617Y15884617D01*
X37782169Y15953071D01*
X36533072Y17202167D01*
X36464617Y17304617D01*
X36058752Y17575808D01*
X35700847Y17647000D01*
X35700843Y17647000D01*
X35580000Y17671037D01*
X35459157Y17647000D01*
X34502188Y17647000D01*
X34437834Y17690000D01*
X34502188Y17733000D01*
X40948149Y17733000D01*
X40915182Y17683661D01*
X40858758Y17400000D01*
X40858758Y15600000D01*
X40915182Y15316339D01*
X41075863Y15075863D01*
X41316339Y14915182D01*
X41600000Y14858758D01*
X43400000Y14858758D01*
X43683661Y14915182D01*
X43924137Y15075863D01*
X44055860Y15273000D01*
X44681761Y15273000D01*
X45463510Y14491250D01*
X45463510Y14156580D01*
X45726352Y13522022D01*
X46212022Y13036352D01*
X46846580Y12773510D01*
X47533420Y12773510D01*
X48167978Y13036352D01*
X48653648Y13522022D01*
X48916490Y14156580D01*
X48916490Y14843420D01*
X48653648Y15477978D01*
X48167978Y15963648D01*
X47533420Y16226490D01*
X47198750Y16226490D01*
X46143071Y17282168D01*
X46074617Y17384617D01*
X45668752Y17655808D01*
X45310847Y17727000D01*
X45310843Y17727000D01*
X45190000Y17751037D01*
X45069157Y17727000D01*
X44055860Y17727000D01*
X43924137Y17924137D01*
X43776911Y18022511D01*
X44032600Y18405176D01*
X44158874Y19040000D01*
X44032600Y19674824D01*
X43673001Y20213001D01*
X43134824Y20572600D01*
X42660242Y20667000D01*
X42339758Y20667000D01*
X41865176Y20572600D01*
X41326999Y20213001D01*
X41309626Y20187000D01*
X34914987Y20187000D01*
X35034818Y20366339D01*
X35091242Y20650000D01*
X35091242Y22350000D01*
X35034818Y22633661D01*
X34874137Y22874137D01*
X34687000Y22999178D01*
X34687000Y28001604D01*
X34816339Y27915182D01*
X35100000Y27858758D01*
X36900000Y27858758D01*
X37183661Y27915182D01*
X37424137Y28075863D01*
X37555860Y28273000D01*
X40181761Y28273000D01*
X41963510Y26491250D01*
X41963510Y26156580D01*
X42226352Y25522022D01*
X42712022Y25036352D01*
X43346580Y24773510D01*
X44033420Y24773510D01*
X44667978Y25036352D01*
X45153648Y25522022D01*
X45416490Y26156580D01*
X45416490Y26843420D01*
X45153648Y27477978D01*
X44667978Y27963648D01*
X44033420Y28226490D01*
X43698750Y28226490D01*
X41643072Y30282167D01*
X41574617Y30384617D01*
X41168752Y30655808D01*
X40810847Y30727000D01*
X40810843Y30727000D01*
X40690000Y30751037D01*
X40569157Y30727000D01*
X37555860Y30727000D01*
X37424137Y30924137D01*
X37183661Y31084818D01*
X36900000Y31141242D01*
X35100000Y31141242D01*
X34816339Y31084818D01*
X34575863Y30924137D01*
X34477489Y30776911D01*
X34094824Y31032600D01*
X33620242Y31127000D01*
X33299758Y31127000D01*
X32825176Y31032600D01*
X32286999Y30673001D01*
X31927400Y30134824D01*
X31801126Y29500000D01*
X31927400Y28865176D01*
X32233000Y28407814D01*
X32233001Y22945724D01*
X32125863Y22874137D01*
X32027549Y22727000D01*
X30497460Y22727000D01*
X30437194Y22817194D01*
X29832860Y23220996D01*
X29299943Y23327000D01*
X28940057Y23327000D01*
X28407140Y23220996D01*
X27802806Y22817194D01*
X27399004Y22212860D01*
X27257207Y21500000D01*
X27399004Y20787140D01*
X27802806Y20182806D01*
X28076395Y20000000D01*
X27802806Y19817194D01*
X27399004Y19212860D01*
X27257207Y18500000D01*
X27399004Y17787140D01*
X27802806Y17182806D01*
X28407140Y16779004D01*
X28552953Y16750000D01*
X28407140Y16720996D01*
X27802806Y16317194D01*
X27399004Y15712860D01*
X27257207Y15000000D01*
X27386813Y14348426D01*
X24953071Y16782168D01*
X24884617Y16884617D01*
X24478752Y17155808D01*
X24120847Y17227000D01*
X24120843Y17227000D01*
X24000000Y17251037D01*
X23976938Y17246450D01*
X23884617Y17384617D01*
X23782167Y17453072D01*
X23727000Y17508239D01*
X23727000Y20379157D01*
X23751037Y20500000D01*
X23727000Y20620843D01*
X23727000Y20620847D01*
X23655808Y20978752D01*
X23548636Y21139146D01*
X23453072Y21282168D01*
X23453070Y21282170D01*
X23384617Y21384617D01*
X23341242Y21413599D01*
X23341242Y22600000D01*
X23284818Y22883661D01*
X23124137Y23124137D01*
X22883661Y23284818D01*
X22600000Y23341242D01*
X20400000Y23341242D01*
X20116339Y23284818D01*
X19875863Y23124137D01*
X19715182Y22883661D01*
X19658758Y22600000D01*
X19658758Y21413599D01*
X19615384Y21384617D01*
X19546931Y21282170D01*
X19546929Y21282168D01*
X19417347Y21088235D01*
X19372590Y21021250D01*
X19344192Y20978750D01*
X19248963Y20500000D01*
X19273001Y20379153D01*
X19273000Y17227000D01*
X18620843Y17227000D01*
X18500000Y17251037D01*
X18379157Y17227000D01*
X16620842Y17227000D01*
X16499999Y17251037D01*
X16379156Y17227000D01*
X16095022Y17227000D01*
X15933661Y17334818D01*
X15650000Y17391242D01*
X14350000Y17391242D01*
X14066339Y17334818D01*
X13904978Y17227000D01*
X13470842Y17227000D01*
X13349999Y17251037D01*
X13229156Y17227000D01*
X13229153Y17227000D01*
X12871248Y17155808D01*
X12606263Y16978750D01*
X12465383Y16884617D01*
X12396930Y16782170D01*
X9217833Y13603072D01*
X9115383Y13534617D01*
X8844192Y13128751D01*
X8816840Y12991242D01*
X8750000Y12991242D01*
X8466339Y12934818D01*
X8225863Y12774137D01*
X8065182Y12533661D01*
X8008758Y12250000D01*
X735000Y12250000D01*
X735000Y33265000D01*
X71265000Y33265000D01*
X71265001Y735000D01*
M02*
