M48
;DRILL file {KiCad (5.0.0-rc2-dev-493-gd776eaca8)} date Tue Jun 12 16:33:21 2018
;FORMAT={-:-/ absolute / metric / decimal}
FMAT,2
METRIC,TZ
T1C0.800
T2C0.800
T3C1.000
T4C1.100
%
G90
G05
M71
T1
X59.88Y19.12
X59.88Y16.58
X59.88Y14.04
X59.88Y11.5
X67.5Y19.12
X67.5Y16.58
X67.5Y14.04
X67.5Y11.5
X20.Y5.
X22.5Y5.
X15.Y19.5
X15.Y16.
T2
X43.69Y26.5
X51.31Y26.5
X47.19Y14.5
X54.81Y14.5
X46.69Y6.
X54.31Y6.
T3
X16.Y10.5
X18.54Y10.5
X21.08Y10.5
X42.5Y21.58
X42.5Y19.04
X42.5Y16.5
X30.92Y29.5
X33.46Y29.5
X36.Y29.5
X42.5Y11.08
X42.5Y8.54
X42.5Y6.
X57.34Y28.5
X59.88Y28.5
X62.42Y28.5
X64.96Y28.5
X67.5Y28.5
X33.5Y21.5
X33.5Y18.96
X33.5Y16.42
X33.5Y13.88
T4
X21.5Y15.
X29.12Y15.
X21.5Y18.5
X29.12Y18.5
X21.5Y21.5
X29.12Y21.5
T3
X4.5Y11.5G85X4.5Y9.5
G05
X6.5Y5.8G85X8.5Y5.8
G05
X10.5Y11.5G85X10.5Y9.5
G05
T0
M30
